<svg width="14" height="8" viewBox="0 0 14 8" fill="none" xmlns="http://www.w3.org/2000/svg">
<path fill-rule="evenodd" clip-rule="evenodd" d="M8.04715 7.59453C7.77172 7.85417 7.39836 8 7.00908 8C6.6198 8 6.24644 7.85416 5.971 7.59453L0.430043 2.36676C0.154599 2.10667 -9.20944e-05 1.75396 -2.01514e-07 1.38622C9.16914e-05 1.01849 0.154959 0.665848 0.430533 0.40588C0.706107 0.145913 1.07981 -8.64415e-05 1.46944 2.9549e-07C1.85907 8.70324e-05 2.23271 0.146253 2.50815 0.406343L7.00908 4.65437L11.51 0.406344C11.7869 0.153668 12.1579 0.0137567 12.5431 0.0167431C12.9283 0.0197295 13.2968 0.165375 13.5693 0.422311C13.8417 0.679246 13.9964 1.02691 13.9999 1.39043C14.0035 1.75395 13.8556 2.10423 13.5881 2.36583L8.04813 7.59546L8.04715 7.59453Z" fill="#243065"/>
</svg>
