<svg width="23" height="23" viewBox="0 0 23 23" fill="none" xmlns="http://www.w3.org/2000/svg">
<path d="M8.34191 7.22089L11.5 10.3788L14.6417 7.23726C14.7111 7.16339 14.7947 7.10431 14.8875 7.06354C14.9803 7.02277 15.0804 7.00116 15.1817 7C15.3987 7 15.6068 7.08619 15.7602 7.23962C15.9137 7.39305 15.9999 7.60114 15.9999 7.81812C16.0018 7.91843 15.9832 8.01806 15.9452 8.11091C15.9072 8.20377 15.8506 8.28788 15.779 8.35808L12.5963 11.4997L15.779 14.6822C15.9138 14.8141 15.9929 14.9927 15.9999 15.1812C15.9999 15.3982 15.9137 15.6063 15.7602 15.7597C15.6068 15.9132 15.3987 15.9994 15.1817 15.9994C15.0774 16.0037 14.9734 15.9863 14.8762 15.9482C14.779 15.9102 14.6908 15.8524 14.6172 15.7785L11.5 12.6205L8.35009 15.7703C8.28096 15.8417 8.19838 15.8987 8.1071 15.938C8.01583 15.9773 7.91767 15.9982 7.81829 15.9994C7.6013 15.9994 7.3932 15.9132 7.23977 15.7597C7.08633 15.6063 7.00013 15.3982 7.00013 15.1812C6.99823 15.0809 7.01684 14.9813 7.05482 14.8884C7.09281 14.7956 7.14937 14.7115 7.22104 14.6413L10.4037 11.4997L7.22104 8.31718C7.08619 8.18526 7.00712 8.00663 7.00013 7.81812C7.00013 7.60114 7.08633 7.39305 7.23977 7.23962C7.3932 7.08619 7.6013 7 7.81829 7C8.01465 7.00245 8.20282 7.08181 8.34191 7.22089Z" fill="#EBEBEB"/>
<path d="M23 11.5C23 17.8513 17.8513 23 11.5 23C5.14873 23 0 17.8513 0 11.5C0 5.14873 5.14873 0 11.5 0C17.8513 0 23 5.14873 23 11.5ZM1.68498 11.5C1.68498 16.9207 6.07932 21.315 11.5 21.315C16.9207 21.315 21.315 16.9207 21.315 11.5C21.315 6.07932 16.9207 1.68498 11.5 1.68498C6.07932 1.68498 1.68498 6.07932 1.68498 11.5Z" fill="#D9D9D9"/>
</svg>
