<svg width="105" height="67" viewBox="0 0 105 67" fill="none" xmlns="http://www.w3.org/2000/svg">
<path d="M1.11153 28.3067C1.01896 28.3067 0.939012 28.2354 0.934804 28.1431L0.000671944 16.9436C-0.00774367 16.8471 0.0637888 16.7591 0.164776 16.7507C0.257348 16.7423 0.349919 16.8136 0.358335 16.9143L1.29247 28.1138C1.30088 28.2103 1.22935 28.2983 1.12836 28.3067C1.12416 28.3067 1.11995 28.3067 1.11153 28.3067Z" fill="#407BFF"/>
<path d="M1.66635 34.9581C1.57378 34.9581 1.49383 34.8868 1.48963 34.7945L1.2077 31.4053C1.19929 31.3088 1.27082 31.2207 1.37181 31.2123C1.46438 31.1997 1.55695 31.2752 1.56537 31.3759L1.84729 34.7651C1.85571 34.8616 1.78417 34.9497 1.68319 34.9581C1.67898 34.9581 1.67477 34.9581 1.66635 34.9581Z" fill="#407BFF"/>
<path d="M96.3318 66.8246H9.4532C7.23569 66.8246 5.27064 65.0167 5.0855 62.8062L0.191819 4.17856C0.00667526 1.96802 1.66876 0.160156 3.88627 0.160156H90.7649C92.9824 0.160156 94.9474 1.96802 95.1326 4.17856L100.026 62.8062C100.211 65.0167 98.5493 66.8246 96.3318 66.8246Z" fill="white"/>
<path d="M96.3303 66.9958H9.45169C7.14581 66.9958 5.10923 65.125 4.91988 62.8264L0.0261998 4.19877C-0.066372 3.07882 0.287085 2.02598 1.02345 1.22901C1.75561 0.436236 2.7739 0 3.88897 0H90.7676C93.0734 0 95.11 1.87078 95.2994 4.1736L100.193 62.8012C100.286 63.9212 99.9322 64.974 99.1958 65.771C98.4636 66.5638 97.4453 67 96.3303 67V66.9958ZM3.88897 0.331372C2.86647 0.331372 1.93654 0.729856 1.2675 1.45132C0.598462 2.17699 0.274461 3.14174 0.358617 4.16522L5.2523 62.7928C5.42902 64.9237 7.31412 66.6561 9.45169 66.6561H96.3303C97.3528 66.6561 98.2827 66.2576 98.9517 65.5361C99.6208 64.8104 99.9448 63.8457 99.8606 62.8222L94.9669 4.19458C94.7902 2.06373 92.9051 0.331372 90.7676 0.331372H3.88897Z" fill="#407BFF"/>
<path d="M90.7668 0.160156H3.88823C1.67071 0.160156 0.0086284 1.96802 0.193772 4.17856H95.1345C94.9494 1.96802 92.9843 0.160156 90.7668 0.160156Z" fill="#407BFF"/>
<path d="M5.92283 2.16906C5.9607 2.64724 5.60724 3.03734 5.12755 3.03734C4.64786 3.03734 4.22708 2.65144 4.185 2.16906C4.14293 1.68668 4.50059 1.30078 4.98028 1.30078C5.45997 1.30078 5.88075 1.68668 5.92283 2.16906Z" fill="white"/>
<path d="M9.45603 2.16906C9.4939 2.64724 9.14045 3.03734 8.66076 3.03734C8.18107 3.03734 7.76029 2.65144 7.71821 2.16906C7.67613 1.68668 8.03379 1.30078 8.51348 1.30078C8.99317 1.30078 9.41395 1.68668 9.45603 2.16906Z" fill="white"/>
<path d="M12.9912 2.16906C13.0291 2.64724 12.6756 3.03734 12.1959 3.03734C11.7162 3.03734 11.2954 2.65144 11.2534 2.16906C11.2113 1.69088 11.5689 1.30078 12.0486 1.30078C12.5283 1.30078 12.9491 1.68668 12.9912 2.16906Z" fill="white"/>
<path d="M88.7889 59.1443H15.7077C13.9446 59.1443 12.3835 57.7055 12.2362 55.9522L8.82371 15.0593C8.67644 13.3017 9.99769 11.8672 11.7608 11.8672H84.842C86.605 11.8672 88.1661 13.3059 88.3134 15.0593L91.7259 55.9522C91.8732 57.7097 90.552 59.1443 88.7889 59.1443Z" fill="#F0F0F0"/>
<path opacity="0.1" d="M66.1889 19.0221L43.5466 46.1945C40.4413 49.9235 42.4063 55.603 47.1612 56.6306L83.8827 64.55C88.9531 65.6448 93.1904 60.6449 91.2632 55.8421L77.1839 20.7502C75.3619 16.2075 69.3279 15.2595 66.1889 19.0221Z" fill="#263238"/>
<path opacity="0.1" d="M15.7985 22.8352L7.91303 44.0052C6.86108 46.8282 9.1375 49.777 12.1461 49.4833L35.1754 47.2308C38.4028 46.9163 39.9976 43.1579 37.9736 40.6286L22.8297 21.711C20.8436 19.232 16.9051 19.8612 15.7985 22.8352Z" fill="#263238"/>
<path d="M73.9984 12.1793L52.8331 42.8165C49.9508 46.9901 52.5049 52.7241 57.5417 53.3953L96.4471 58.5588C101.846 59.2761 105.864 53.6931 103.449 48.8232L85.7087 13.0266C83.4071 8.38323 76.9439 7.91763 73.9984 12.1835V12.1793Z" fill="#407BFF"/>
<path d="M58.4668 50.6456C57.053 50.4568 55.8201 49.5676 55.1763 48.2672C54.5325 46.9669 54.6041 45.524 55.3741 44.4082L76.5941 13.6955C77.3641 12.5798 78.6685 12.0303 80.0824 12.2148C81.4962 12.4036 82.7291 13.2928 83.3729 14.5932L101.159 50.482C101.803 51.7823 101.732 53.2252 100.961 54.341C100.191 55.4567 98.887 56.0062 97.4732 55.8217L58.4668 50.6456Z" fill="white"/>
<path d="M78.2762 23.0806L80.7546 23.4078C82.3494 23.6175 83.5738 25.0647 83.4939 26.6334L83.3298 29.8549C83.3256 29.9723 83.3087 30.0898 83.2877 30.2072L81.5246 39.9177C81.2722 41.3187 79.9888 42.2205 78.5329 42.0275C77.0728 41.8346 75.8988 40.5972 75.7978 39.1459L75.0825 29.1124C75.0741 28.995 75.0741 28.8817 75.0825 28.7643L75.2508 25.5387C75.3307 23.9657 76.6899 22.8667 78.2846 23.0764L78.2762 23.0806ZM78.0784 44.7079L78.7559 44.796C80.1824 44.9847 81.2764 46.2767 81.2048 47.6818C81.1333 49.087 79.9173 50.0727 78.4908 49.884L77.8134 49.7959C76.3869 49.6072 75.2929 48.3152 75.3644 46.91C75.4359 45.5049 76.652 44.5191 78.0784 44.7079Z" fill="#407BFF"/>
<path d="M23.9364 16.8648L18.1254 38.8318C17.3553 41.7386 19.9011 44.4483 22.8634 43.8737L45.4046 39.4903C48.5731 38.8737 49.8102 35.0147 47.5884 32.6825L30.8582 15.0988C28.6533 12.7792 24.7527 13.7775 23.9321 16.8648H23.9364Z" fill="#407BFF"/>
<path d="M22.8215 42.0961C22.001 42.2554 21.151 41.9702 20.5409 41.3284C19.9307 40.6909 19.6951 39.831 19.9055 39.0298L25.7333 17.0041C25.9437 16.2071 26.5622 15.6325 27.3785 15.4731C28.1991 15.3137 29.049 15.5989 29.6592 16.2407L46.4315 33.8705C47.0416 34.5081 47.2773 35.3679 47.0669 36.1691C46.8565 36.9661 46.2379 37.5407 45.4216 37.7001L22.8215 42.0961Z" fill="white"/>
<path d="M28.4705 22.1797L29.9054 21.8987C30.8269 21.7183 31.7863 22.3307 32.043 23.2661L32.5732 25.183C32.5942 25.2544 32.6068 25.3257 32.6194 25.397L33.5157 31.4204C33.6461 32.2887 33.1075 33.0605 32.266 33.2282C31.4202 33.3918 30.5324 32.8927 30.1957 32.0622L27.8646 26.324C27.8394 26.2569 27.8141 26.1897 27.7973 26.1226L27.2671 24.2015C27.0104 23.2661 27.549 22.3643 28.4705 22.1839V22.1797ZM32.5353 34.8809L32.9266 34.8054C33.7513 34.646 34.6097 35.1913 34.8412 36.0302C35.0726 36.8649 34.5887 37.6745 33.764 37.8339L33.3726 37.9094C32.5479 38.0688 31.6895 37.5235 31.4581 36.6846C31.2267 35.8499 31.7106 35.0403 32.5353 34.8809Z" fill="#407BFF"/>
</svg>
