<svg width="20" height="20" viewBox="0 0 20 20" fill="none" xmlns="http://www.w3.org/2000/svg">
<path fill-rule="evenodd" clip-rule="evenodd" d="M4.34127 0.312131C8.10224 -0.104044 11.8978 -0.104044 15.6587 0.312131C17.7411 0.545134 19.4211 2.18222 19.6654 4.26833C20.1115 8.07645 20.1115 11.9235 19.6654 15.7316C19.4211 17.8177 17.7411 19.4548 15.6587 19.6878C11.8978 20.1041 8.10223 20.1041 4.34127 19.6878C2.25891 19.4548 0.578923 17.8177 0.334583 15.7316C-0.111528 11.9239 -0.111528 8.07726 0.334583 4.26955C0.458172 3.25607 0.920974 2.31395 1.64798 1.59589C2.37499 0.877824 3.32359 0.425894 4.34006 0.313344M10 3.94067C10.2418 3.94067 10.4737 4.03656 10.6447 4.20725C10.8157 4.37794 10.9117 4.60945 10.9117 4.85084V9.0898H15.1579C15.3997 9.0898 15.6316 9.18569 15.8026 9.35638C15.9735 9.52707 16.0696 9.75858 16.0696 9.99997C16.0696 10.2414 15.9735 10.4729 15.8026 10.6436C15.6316 10.8142 15.3997 10.9101 15.1579 10.9101H10.9117V15.1491C10.9117 15.3905 10.8157 15.622 10.6447 15.7927C10.4737 15.9634 10.2418 16.0593 10 16.0593C9.75819 16.0593 9.5263 15.9634 9.35532 15.7927C9.18434 15.622 9.08828 15.3905 9.08828 15.1491V10.9101H4.84211C4.60031 10.9101 4.36841 10.8142 4.19743 10.6436C4.02645 10.4729 3.93039 10.2414 3.93039 9.99997C3.93039 9.75858 4.02645 9.52707 4.19743 9.35638C4.36841 9.18569 4.60031 9.0898 4.84211 9.0898H9.08828V4.85084C9.08828 4.60945 9.18434 4.37794 9.35532 4.20725C9.5263 4.03656 9.75819 3.94067 10 3.94067Z" fill="#243065"/>
</svg>
