<svg width="3" height="13" viewBox="0 0 3 13" fill="none" xmlns="http://www.w3.org/2000/svg">
<path d="M-6.55671e-08 1.5C-4.81776e-08 1.10218 0.158035 0.720644 0.43934 0.43934C0.720644 0.158035 1.10218 -8.29566e-08 1.5 -6.55671e-08C1.89782 -4.81776e-08 2.27936 0.158035 2.56066 0.43934C2.84196 0.720644 3 1.10218 3 1.5C3 1.89782 2.84196 2.27936 2.56066 2.56066C2.27936 2.84196 1.89782 3 1.5 3C1.10218 3 0.720644 2.84196 0.43934 2.56066C0.158035 2.27936 -8.29566e-08 1.89782 -6.55671e-08 1.5ZM-2.84124e-07 6.5C-2.66735e-07 6.10218 0.158035 5.72064 0.439339 5.43934C0.720644 5.15804 1.10218 5 1.5 5C1.89782 5 2.27936 5.15804 2.56066 5.43934C2.84196 5.72064 3 6.10218 3 6.5C3 6.89782 2.84196 7.27936 2.56066 7.56066C2.27936 7.84196 1.89782 8 1.5 8C1.10217 8 0.720644 7.84196 0.439339 7.56066C0.158035 7.27936 -3.01513e-07 6.89782 -2.84124e-07 6.5ZM-5.02681e-07 11.5C-4.85292e-07 11.1022 0.158035 10.7206 0.439339 10.4393C0.720644 10.158 1.10217 10 1.5 10C1.89782 10 2.27936 10.158 2.56066 10.4393C2.84196 10.7206 3 11.1022 3 11.5C3 11.8978 2.84196 12.2794 2.56066 12.5607C2.27936 12.842 1.89782 13 1.5 13C1.10217 13 0.720644 12.842 0.439339 12.5607C0.158035 12.2794 -5.2007e-07 11.8978 -5.02681e-07 11.5Z" fill="#243065"/>
</svg>
