<svg width="24" height="27" viewBox="0 0 24 27" fill="none" xmlns="http://www.w3.org/2000/svg">
<path d="M23.756 12.582C23.4418 11.0464 22.8279 9.58795 21.9493 8.28998C21.0861 7.01302 19.9863 5.91321 18.7093 5.04998C17.4112 4.17175 15.9527 3.55784 14.4173 3.24332C13.6108 3.07975 12.7896 2.99933 11.9667 3.00332V0.333984L6.66666 4.33398L11.9667 8.33398V5.66998C12.612 5.66731 13.2573 5.72865 13.88 5.85665C15.0733 6.10119 16.2069 6.57826 17.216 7.26065C18.2112 7.93163 19.0677 8.78815 19.7387 9.78331C20.7804 11.3236 21.3359 13.1411 21.3333 15.0006C21.3331 16.2485 21.0838 17.4837 20.6 18.634C20.3647 19.188 20.0772 19.7184 19.7413 20.218C19.4041 20.7145 19.0211 21.1783 18.5973 21.6033C17.3066 22.8915 15.6681 23.7752 13.8827 24.146C12.641 24.3967 11.3617 24.3967 10.12 24.146C8.92607 23.9012 7.79205 23.4237 6.78266 22.7406C5.78864 22.0702 4.93306 21.2147 4.26266 20.2206C3.22207 18.6787 2.66627 16.8609 2.66666 15.0006H0C0.00141889 17.3922 0.715848 19.7291 2.052 21.7126C2.9158 22.9875 4.01448 24.0862 5.28933 24.95C7.27015 26.2906 9.60814 27.005 12 27.0006C12.8124 27.0006 13.6226 26.9188 14.4187 26.7566C15.953 26.4398 17.4105 25.8261 18.7093 24.95C19.347 24.5203 19.9414 24.0295 20.484 23.4846C21.0273 22.9398 21.5184 22.3452 21.9506 21.7086C23.2901 19.7283 24.0041 17.3914 24 15.0006C23.9999 14.1883 23.9182 13.378 23.756 12.582Z" fill="#458FF6"/>
<path d="M12 19C14.228 19 16 17.2253 16 15C16 12.7747 14.228 11 12 11C9.772 11 8 12.7747 8 15C8 17.2253 9.772 19 12 19Z" fill="#458FF6"/>
</svg>
