<svg width="13" height="8" viewBox="0 0 13 8" fill="none" xmlns="http://www.w3.org/2000/svg">
<path fill-rule="evenodd" clip-rule="evenodd" d="M0.180483 0.887366C-0.0600147 1.13843 -0.0600148 1.54447 0.180483 1.79492L5.27658 7.10323C5.38892 7.22206 5.52412 7.31668 5.67396 7.38133C5.82381 7.44598 5.98517 7.47932 6.14824 7.47932C6.3113 7.47932 6.47266 7.44598 6.62251 7.38133C6.77235 7.31668 6.90756 7.22206 7.01989 7.10324L12.1536 1.75648C12.2683 1.63514 12.3328 1.47444 12.334 1.30703C12.3351 1.13962 12.2728 0.978052 12.1598 0.855131C12.1039 0.794238 12.0363 0.745516 11.9609 0.711981C11.8856 0.678446 11.8042 0.660814 11.7219 0.660174C11.6395 0.659535 11.5579 0.675903 11.482 0.708265C11.4062 0.740626 11.3378 0.788293 11.281 0.848312L6.58391 5.74191C6.52774 5.80137 6.46012 5.84872 6.38517 5.88107C6.31021 5.91343 6.2295 5.93011 6.14793 5.93011C6.06636 5.93011 5.98564 5.91343 5.91069 5.88107C5.83574 5.84872 5.76812 5.80137 5.71195 5.74191L1.05183 0.887366C0.99571 0.827923 0.928144 0.780585 0.853244 0.748236C0.778343 0.715888 0.697677 0.699205 0.616156 0.699205C0.534635 0.699205 0.453967 0.715888 0.379066 0.748236C0.304166 0.780585 0.2366 0.827923 0.180483 0.887366Z" fill="#458FF6"/>
</svg>
