<svg width="30" height="29" viewBox="0 0 30 29" fill="none" xmlns="http://www.w3.org/2000/svg">
<path d="M10.2197 9.15109L13.8575 1.71613C13.9634 1.50096 14.1263 1.31998 14.3279 1.19349C14.5294 1.067 14.7617 1 14.9987 1C15.2357 1 15.468 1.067 15.6696 1.19349C15.8712 1.31998 16.034 1.50096 16.1399 1.71613L19.7778 9.15109L27.9105 10.3505C28.145 10.3835 28.3657 10.4827 28.5474 10.637C28.729 10.7912 28.8643 10.9941 28.9377 11.2226C29.0112 11.4511 29.0198 11.6959 28.9627 11.9292C28.9056 12.1624 28.7851 12.3747 28.6148 12.5417L22.7309 18.3254L24.12 26.4965C24.2978 27.5452 23.2056 28.3439 22.2716 27.8493L14.9987 23.9897L7.72444 27.8493C6.79187 28.3453 5.69967 27.5452 5.8775 26.4951L7.26655 18.324L1.3827 12.5403C1.21325 12.3732 1.09341 12.1611 1.03679 11.9283C0.98017 11.6954 0.989051 11.4512 1.06242 11.2232C1.13579 10.9952 1.2707 10.7927 1.45183 10.6387C1.63295 10.4847 1.85302 10.3853 2.08703 10.3519L10.2197 9.15109Z" stroke="#C9C9C9" stroke-width="1.5" stroke-linecap="round" stroke-linejoin="round"/>
</svg>
