<svg width="18" height="18" viewBox="0 0 18 18" fill="none" xmlns="http://www.w3.org/2000/svg">
<path d="M13.179 11.0014H12.3462L12.051 10.7314C12.7099 10.0054 13.1914 9.15021 13.4611 8.22705C13.7308 7.30389 13.7821 6.33559 13.6112 5.39144C13.1158 2.61144 10.67 0.39144 7.71827 0.0514397C6.68053 -0.0730946 5.62651 0.0292113 4.63686 0.350529C3.64722 0.671846 2.74818 1.20366 2.00854 1.90527C1.2689 2.60688 0.70826 3.4597 0.369527 4.39846C0.0307945 5.33723 -0.0770564 6.33706 0.0542277 7.32144C0.412656 10.1214 2.75298 12.4414 5.68366 12.9114C6.67899 13.0735 7.69977 13.0248 8.67296 12.769C9.64616 12.5131 10.5477 12.0564 11.3131 11.4314L11.5977 11.7114V12.5014L16.0781 16.7514C16.5103 17.1614 17.2166 17.1614 17.6488 16.7514C18.0811 16.3414 18.0811 15.6714 17.6488 15.2614L13.179 11.0014ZM6.85382 11.0014C4.22886 11.0014 2.10992 8.99144 2.10992 6.50144C2.10992 4.01144 4.22886 2.00144 6.85382 2.00144C9.47878 2.00144 11.5977 4.01144 11.5977 6.50144C11.5977 8.99144 9.47878 11.0014 6.85382 11.0014Z" fill="url(#paint0_linear_11110_26949)"/>
<defs>
<linearGradient id="paint0_linear_11110_26949" x1="5.11301" y1="2.64708" x2="25.8791" y2="8.75736" gradientUnits="userSpaceOnUse">
<stop stop-color="#3D5BFF"/>
<stop offset="0.802294" stop-color="#253799"/>
</linearGradient>
</defs>
</svg>
