<svg width="18" height="20" viewBox="0 0 18 20" fill="none" xmlns="http://www.w3.org/2000/svg">
<path d="M1 19.2167H17M2.666 11.3581C2.23943 11.7878 1.99989 12.3703 2 12.9775V16.1992H5.223C5.827 16.1992 6.406 15.9578 6.833 15.5273L16.333 5.96683C16.7597 5.5372 16.9994 4.95474 16.9994 4.34744C16.9994 3.74014 16.7597 3.15768 16.333 2.72804L15.395 1.78256C15.1835 1.56967 14.9323 1.40082 14.6558 1.28564C14.3794 1.17047 14.083 1.11123 13.7838 1.11133C13.4846 1.11142 13.1883 1.17084 12.9119 1.28619C12.6355 1.40154 12.3844 1.57055 12.173 1.78356L2.666 11.3581Z" stroke="#3D5BFF" stroke-width="1.5" stroke-linecap="round" stroke-linejoin="round"/>
</svg>
