<svg width="23" height="23" viewBox="0 0 23 23" fill="none" xmlns="http://www.w3.org/2000/svg">
<path d="M13.3125 22.375H9.6875C9.20679 22.375 8.74578 22.184 8.40587 21.8441C8.06596 21.5042 7.875 21.0432 7.875 20.5625V13.6841L1.15969 6.96875C0.819311 6.6304 0.627023 6.17087 0.625 5.69094V2.4375C0.625 1.9568 0.815959 1.49578 1.15587 1.15587C1.49578 0.815959 1.9568 0.625 2.4375 0.625H20.5625C21.0432 0.625 21.5042 0.815959 21.8441 1.15587C22.184 1.49578 22.375 1.9568 22.375 2.4375V5.69094C22.373 6.17087 22.1807 6.6304 21.8403 6.96875L15.125 13.6841V20.5625C15.125 21.0432 14.934 21.5042 14.5941 21.8441C14.2542 22.184 13.7932 22.375 13.3125 22.375ZM2.4375 2.4375V5.69094L9.6875 12.9409V20.5625H13.3125V12.9409L20.5625 5.69094V2.4375H2.4375Z" fill="#458FF6"/>
</svg>
