<svg width="8" height="14" viewBox="0 0 8 14" fill="none" xmlns="http://www.w3.org/2000/svg">
<path fill-rule="evenodd" clip-rule="evenodd" d="M7.59453 5.95285C7.85416 6.22828 8 6.60164 8 6.99092C8 7.3802 7.85416 7.75356 7.59453 8.02899L2.36676 13.57C2.10667 13.8454 1.75396 14.0001 1.38622 14C1.01849 13.9999 0.665847 13.845 0.40588 13.5695C0.145913 13.2939 -8.66174e-05 12.9202 5.60873e-08 12.5306C8.67296e-05 12.1409 0.146252 11.7673 0.406342 11.4919L4.65437 6.99092L0.406342 2.48999C0.153667 2.21306 0.0137547 1.84207 0.0167411 1.4569C0.0197274 1.07174 0.165373 0.70323 0.422308 0.430741C0.679244 0.158252 1.02691 0.00358774 1.39043 6.10517e-05C1.75395 -0.00346659 2.10423 0.144425 2.36583 0.411882L7.59546 5.95187L7.59453 5.95285Z" fill="#243065"/>
</svg>
