<svg width="28" height="27" viewBox="0 0 28 27" fill="none" xmlns="http://www.w3.org/2000/svg">
<path d="M10.0143 4.60081C11.7881 1.5336 12.6742 0 14 0C15.3258 0 16.2119 1.5336 17.9857 4.60081L18.4449 5.39462C18.9489 6.26672 19.2009 6.70277 19.5929 6.99032C19.9849 7.27787 20.4748 7.38452 21.4548 7.59782L22.3452 7.79222C25.7891 8.54418 27.5097 8.91948 27.9199 10.1898C28.3287 11.4588 27.1555 12.7832 24.8077 15.4305L24.2002 16.115C23.5338 16.867 23.1992 17.2436 23.0494 17.708C22.8996 18.1738 22.95 18.676 23.0508 19.679L23.1432 20.593C23.4974 24.1259 23.6752 25.8917 22.6028 26.6761C21.5304 27.4618 19.9177 26.7449 16.6949 25.3139L15.8592 24.944C14.9436 24.5363 14.4858 24.3338 14 24.3338C13.5142 24.3338 13.0564 24.5363 12.1408 24.944L11.3065 25.3139C8.08234 26.7449 6.46958 27.4604 5.3986 26.6774C4.32483 25.8917 4.50262 24.1259 4.85681 20.593L4.94921 19.6804C5.05001 18.676 5.10041 18.1738 4.94921 17.7094C4.80082 17.2436 4.46622 16.867 3.79984 16.1163L3.19225 15.4305C0.844509 12.7845 -0.328663 11.4602 0.0801271 10.1898C0.490317 8.91948 2.21228 8.54283 5.6562 7.79222L6.54658 7.59782C7.52515 7.38452 8.01374 7.27787 8.40713 6.99032C8.79912 6.70277 9.05112 6.26672 9.5551 5.39462L10.0143 4.60081Z" fill="#FFB800"/>
</svg>
