<svg width="10" height="12" viewBox="0 0 10 12" fill="none" xmlns="http://www.w3.org/2000/svg">
<path fill-rule="evenodd" clip-rule="evenodd" d="M2.74111 0.222656H7.25889C7.75111 0.222656 8.17556 0.222656 8.51556 0.268212C8.87944 0.317101 9.22889 0.427656 9.51167 0.71099C9.795 0.994323 9.90556 1.34321 9.95444 1.7071C10 2.0471 10 2.47154 10 2.96377V3.52821C10 3.67555 9.94147 3.81686 9.83728 3.92105C9.7331 4.02524 9.59179 4.08377 9.44444 4.08377C9.2971 4.08377 9.15579 4.02524 9.05161 3.92105C8.94742 3.81686 8.88889 3.67555 8.88889 3.52821V3.00043C8.88889 2.46099 8.88778 2.1121 8.85333 1.85543C8.82056 1.61432 8.76833 1.53877 8.72611 1.49655C8.68389 1.45432 8.60833 1.4021 8.36722 1.36932C8.11111 1.33488 7.76167 1.33377 7.22222 1.33377H5.55556V10.7782C5.55556 10.9256 5.49702 11.0669 5.39284 11.171C5.28865 11.2752 5.14734 11.3338 5 11.3338C4.85266 11.3338 4.71135 11.2752 4.60716 11.171C4.50298 11.0669 4.44444 10.9256 4.44444 10.7782V1.33377H2.77778C2.23833 1.33377 1.88944 1.33488 1.63278 1.36932C1.39167 1.4021 1.31611 1.45432 1.27389 1.49655C1.23167 1.53877 1.17944 1.61432 1.14667 1.85543C1.11222 2.11155 1.11111 2.46099 1.11111 3.00043V3.52821C1.11111 3.67555 1.05258 3.81686 0.948393 3.92105C0.844206 4.02524 0.702898 4.08377 0.555556 4.08377C0.408213 4.08377 0.266905 4.02524 0.162718 3.92105C0.0585316 3.81686 0 3.67555 0 3.52821V2.96377C0 2.47154 8.27842e-09 2.0471 0.0455556 1.7071C0.0944445 1.34321 0.205 0.993767 0.488333 0.71099C0.771667 0.427656 1.12056 0.317101 1.48444 0.268212C1.82444 0.222656 2.24889 0.222656 2.74111 0.222656Z" fill="#243065"/>
<path d="M2.22266 10.7773H7.77821H2.22266Z" fill="#243065"/>
<path d="M2.22266 10.7773H7.77821" stroke="#243065" stroke-width="2" stroke-linecap="round" stroke-linejoin="round"/>
</svg>
